<?xml version="1.0" standalone="no"?>
<!DOCTYPE svg PUBLIC "-//W3C//DTD SVG 20010904//EN"
 "http://www.w3.org/TR/2001/REC-SVG-20010904/DTD/svg10.dtd">
<svg version="1.0" xmlns="http://www.w3.org/2000/svg"
 width="1024.000000pt" height="1024.000000pt" viewBox="0 0 1024.000000 1024.000000"
 preserveAspectRatio="xMidYMid meet">

<g transform="translate(0.000000,1024.000000) scale(0.100000,-0.100000)"
fill="#000000" stroke="none">
<path d="M4920 8079 c-255 -14 -508 -65 -792 -160 -540 -179 -1027 -526 -1372
-979 -363 -476 -559 -946 -621 -1490 -21 -183 -16 -569 9 -730 70 -438 187
-769 394 -1118 128 -214 328 -471 478 -612 324 -304 701 -547 1018 -655 135
-46 202 -46 261 -1 71 55 75 77 68 402 -6 283 -6 285 -27 280 -161 -44 -425
-47 -564 -7 -216 63 -345 190 -433 429 l-44 117 -125 125 c-88 88 -143 135
-187 158 -69 36 -93 63 -93 103 0 90 182 94 351 8 129 -65 247 -182 377 -374
103 -152 132 -175 237 -194 165 -29 354 -18 441 25 36 18 41 27 81 134 24 63
63 156 87 206 l44 91 -128 11 c-199 18 -336 52 -492 125 -347 160 -585 488
-665 917 -25 134 -24 437 1 575 37 202 122 408 234 563 l54 76 -24 105 c-30
138 -33 407 -5 510 38 139 88 187 182 175 130 -17 356 -118 564 -254 l112 -73
157 36 c284 66 332 71 607 71 276 0 334 -6 618 -70 l163 -36 111 70 c217 139
385 217 528 247 122 25 166 1 203 -110 54 -160 56 -381 6 -601 l-16 -71 66
-89 c115 -156 193 -344 233 -564 24 -132 24 -411 0 -535 -80 -411 -291 -728
-597 -898 -153 -85 -367 -148 -561 -166 -63 -6 -119 -11 -126 -11 -7 0 -3 -18
12 -47 38 -80 76 -193 98 -293 19 -89 21 -128 22 -581 1 -530 -2 -500 60 -561
61 -61 147 -62 320 -4 189 63 440 195 608 319 674 498 1097 1183 1231 1992 58
345 42 784 -39 1123 -77 323 -223 665 -408 954 -221 345 -470 596 -825 829
-141 93 -429 244 -577 302 -406 161 -857 232 -1315 206z"/>
<path d="M8963 6590 c0 -30 2 -43 4 -27 2 15 2 39 0 55 -2 15 -4 2 -4 -28z"/>
<path d="M8962 6460 c0 -14 2 -19 5 -12 2 6 2 18 0 25 -3 6 -5 1 -5 -13z"/>
<path d="M8961 6274 c0 -11 3 -14 6 -6 3 7 2 16 -1 19 -3 4 -6 -2 -5 -13z"/>
<path d="M8962 6135 c0 -16 2 -22 5 -12 2 9 2 23 0 30 -3 6 -5 -1 -5 -18z"/>
<path d="M8962 6060 c0 -19 2 -27 5 -17 2 9 2 25 0 35 -3 9 -5 1 -5 -18z"/>
<path d="M8962 5985 c0 -16 2 -22 5 -12 2 9 2 23 0 30 -3 6 -5 -1 -5 -18z"/>
<path d="M8961 5914 c0 -11 3 -14 6 -6 3 7 2 16 -1 19 -3 4 -6 -2 -5 -13z"/>
<path d="M8962 5660 c0 -14 2 -19 5 -12 2 6 2 18 0 25 -3 6 -5 1 -5 -13z"/>
<path d="M8962 5580 c0 -14 2 -19 5 -12 2 6 2 18 0 25 -3 6 -5 1 -5 -13z"/>
<path d="M8963 5445 c0 -44 2 -61 4 -37 2 23 2 59 0 80 -2 20 -4 1 -4 -43z"/>
<path d="M8962 5260 c0 -14 2 -19 5 -12 2 6 2 18 0 25 -3 6 -5 1 -5 -13z"/>
<path d="M8961 5194 c0 -11 3 -14 6 -6 3 7 2 16 -1 19 -3 4 -6 -2 -5 -13z"/>
<path d="M8962 5020 c0 -14 2 -19 5 -12 2 6 2 18 0 25 -3 6 -5 1 -5 -13z"/>
<path d="M8964 4675 c0 -176 2 -247 3 -157 2 90 2 234 0 320 -1 86 -3 13 -3
-163z"/>
<path d="M8962 4325 c0 -16 2 -22 5 -12 2 9 2 23 0 30 -3 6 -5 -1 -5 -18z"/>
<path d="M8962 4230 c0 -14 2 -19 5 -12 2 6 2 18 0 25 -3 6 -5 1 -5 -13z"/>
<path d="M8964 4020 c0 -80 2 -112 3 -72 2 39 2 105 0 145 -1 39 -3 7 -3 -73z"/>
<path d="M8964 3725 c0 -82 2 -115 3 -72 2 43 2 110 0 150 -1 40 -3 5 -3 -78z"/>
<path d="M3290 3815 c-15 -18 -6 -61 16 -69 24 -9 54 12 54 37 0 43 -44 63
-70 32z"/>
<path d="M3424 3646 c-3 -9 -3 -28 0 -42 5 -20 12 -25 33 -22 34 4 52 31 37
56 -15 23 -62 28 -70 8z"/>
<path d="M8964 3385 c0 -82 2 -115 3 -72 2 43 2 110 0 150 -1 40 -3 5 -3 -78z"/>
<path d="M3550 3435 c-16 -19 -4 -52 22 -61 30 -9 62 29 48 57 -13 22 -52 25
-70 4z"/>
<path d="M3780 3316 c-28 -35 11 -93 48 -70 35 22 22 84 -18 84 -10 0 -23 -7
-30 -14z"/>
<path d="M4222 3278 c-25 -25 -6 -68 30 -68 9 0 22 9 28 20 22 40 -26 80 -58
48z"/>
<path d="M4005 3220 c-15 -17 -16 -24 -7 -45 14 -31 46 -32 66 -3 13 19 14 25
2 43 -18 28 -39 30 -61 5z"/>
<path d="M8962 3105 c0 -16 2 -22 5 -12 2 9 2 23 0 30 -3 6 -5 -1 -5 -18z"/>
<path d="M8964 2840 c0 -118 2 -167 3 -107 2 59 2 155 0 215 -1 59 -3 10 -3
-108z"/>
<path d="M8962 2540 c0 -19 2 -27 5 -17 2 9 2 25 0 35 -3 9 -5 1 -5 -18z"/>
<path d="M8962 2465 c0 -16 2 -22 5 -12 2 9 2 23 0 30 -3 6 -5 -1 -5 -18z"/>
<path d="M8962 2380 c0 -14 2 -19 5 -12 2 6 2 18 0 25 -3 6 -5 1 -5 -13z"/>
<path d="M1281 2334 c0 -11 3 -14 6 -6 3 7 2 16 -1 19 -3 4 -6 -2 -5 -13z"/>
<path d="M8882 2015 c-17 -37 -14 -45 4 -12 9 16 14 31 11 33 -2 2 -9 -7 -15
-21z"/>
<path d="M1360 1996 c0 -11 50 -106 55 -106 3 0 -7 24 -21 53 -28 55 -34 65
-34 53z"/>
<path d="M8840 1930 c-6 -11 -8 -20 -6 -20 3 0 10 9 16 20 6 11 8 20 6 20 -3
0 -10 -9 -16 -20z"/>
<path d="M8798 1863 c-92 -139 -226 -253 -392 -333 -119 -58 -214 -85 -348
-100 -140 -15 -5780 -14 -5903 1 -159 20 -340 84 -450 159 -68 47 -171 146
-223 215 -54 72 -73 91 -47 50 120 -197 322 -342 575 -413 l95 -27 2960 -3
c2672 -2 2969 -1 3055 13 177 30 317 90 462 197 72 54 193 183 231 248 26 43
15 37 -15 -7z"/>
</g>
</svg>
