<?xml version="1.0" standalone="no"?>
<!DOCTYPE svg PUBLIC "-//W3C//DTD SVG 20010904//EN"
 "http://www.w3.org/TR/2001/REC-SVG-20010904/DTD/svg10.dtd">
<svg version="1.0" xmlns="http://www.w3.org/2000/svg"
 width="1536.000000pt" height="1024.000000pt" viewBox="0 0 1536.000000 1024.000000"
 preserveAspectRatio="xMidYMid meet">

<g transform="translate(0.000000,1024.000000) scale(0.100000,-0.100000)"
fill="#000000" stroke="none">
<path d="M0 5120 l0 -5120 7680 0 7680 0 0 5120 0 5120 -7680 0 -7680 0 0
-5120z m7005 1044 c77 -83 207 -229 290 -325 82 -96 204 -235 270 -310 66 -74
179 -202 250 -284 72 -82 180 -205 240 -274 61 -69 211 -242 333 -383 123
-142 227 -260 233 -263 5 -4 69 33 142 82 73 49 161 106 197 126 51 28 90 64
180 164 116 129 334 362 473 506 l75 78 339 -356 c186 -196 339 -361 341 -368
2 -7 -9 2 -23 18 -48 53 -337 355 -539 563 -60 61 -115 112 -121 112 -19 0
-350 -350 -590 -623 -45 -52 -83 -82 -155 -123 -52 -30 -137 -84 -188 -119
-51 -36 -97 -65 -101 -65 -5 0 -11 -5 -13 -12 -2 -6 -24 11 -49 38 -62 66
-203 224 -264 295 -27 31 -80 90 -116 131 -36 40 -166 188 -289 328 -123 140
-274 311 -335 380 -61 69 -169 193 -240 275 -206 240 -373 422 -625 679 -129
133 -238 243 -242 244 -5 2 -8 -8 -8 -22 0 -64 -76 -451 -139 -707 l-70 -283
242 -246 c133 -135 308 -316 389 -401 l146 -155 82 -169 c87 -180 102 -215 95
-215 -2 0 -47 86 -100 191 l-96 191 -313 327 c-346 359 -443 457 -449 450 -10
-11 -200 -598 -232 -719 -21 -74 -45 -154 -55 -177 l-18 -41 32 -29 c42 -39
297 -249 549 -452 37 -30 65 -56 63 -59 -7 -7 -246 183 -567 450 l-96 80 23
57 c13 31 41 124 64 206 23 83 77 258 122 390 77 232 104 327 202 730 39 161
120 594 113 602 -2 1 -48 -49 -102 -112 -90 -103 -443 -493 -665 -735 -47 -52
-163 -180 -257 -285 -94 -104 -190 -211 -214 -237 -24 -26 -71 -79 -104 -117
-33 -39 -64 -71 -69 -71 -6 0 4 15 21 33 16 17 44 48 60 67 130 150 527 594
943 1054 118 130 256 285 305 343 l90 105 200 -204 c110 -111 263 -271 340
-354z m2769 -1066 c90 -190 126 -271 123 -274 -2 -2 -43 81 -92 184 -49 103
-90 190 -92 195 -3 4 -1 7 2 7 3 0 30 -51 59 -112z m-4761 -22 c-15 -19 -35
-37 -43 -41 -8 -3 3 12 25 34 48 50 57 53 18 7z m-53 -59 c0 -2 -10 -12 -22
-23 l-23 -19 19 23 c18 21 26 27 26 19z m-1200 -312 c112 -121 224 -241 250
-268 l46 -48 129 75 c72 41 195 117 275 169 168 109 220 141 220 134 0 -3 -42
-31 -92 -63 -51 -32 -115 -74 -143 -94 -27 -20 -121 -78 -208 -129 -86 -52
-159 -97 -162 -101 -2 -4 75 -94 171 -201 97 -107 217 -240 266 -297 50 -56
112 -118 138 -137 26 -19 54 -43 61 -52 12 -16 12 -17 -1 -7 -81 59 -135 107
-190 169 -118 132 -473 519 -536 584 -34 36 -156 167 -271 292 -114 125 -210
228 -213 228 -3 1 -6 -18 -7 -41 -1 -24 -9 -163 -19 -309 l-18 -267 74 -103
c41 -57 113 -158 160 -224 98 -136 134 -194 128 -201 -3 -2 -27 28 -53 68 -26
40 -74 109 -106 153 -32 44 -94 130 -137 190 l-79 111 4 59 c2 33 10 172 18
309 8 137 13 251 10 254 -2 2 -17 -11 -32 -29 -15 -19 -129 -144 -252 -279
-123 -135 -242 -264 -264 -288 -21 -24 -40 -42 -42 -40 -2 2 13 21 33 43 20
22 66 74 102 115 36 41 146 165 245 275 99 110 189 210 200 222 l20 22 36 -37
c20 -20 128 -136 239 -257z m1055 146 c-17 -15 -131 -84 -119 -72 16 18 107
79 119 80 6 1 6 -2 0 -8z m5136 -128 c54 -115 70 -153 65 -153 -4 0 -45 83
-92 188 -39 87 -18 58 27 -35z m460 -210 c13 -16 12 -17 -3 -4 -10 7 -18 15
-18 17 0 8 8 3 21 -13z m179 -193 c8 -5 11 -10 5 -10 -5 0 -17 5 -25 10 -8 5
-10 10 -5 10 6 0 17 -5 25 -10z m-1054 -122 c94 -75 566 -467 584 -486 19 -20
-24 14 -146 113 -330 269 -476 386 -480 382 -3 -2 20 -60 51 -127 30 -68 53
-125 51 -128 -3 -2 -11 11 -19 29 -8 19 -33 75 -56 125 -22 51 -41 99 -41 108
0 9 -3 16 -7 16 -5 0 -81 -60 -169 -133 -89 -72 -197 -161 -240 -196 l-79 -63
62 56 c53 49 414 354 420 355 1 1 32 -23 69 -51z m-561 -368 c-3 -6 -34 -29
-68 -51 -34 -23 -55 -34 -46 -25 13 15 109 84 117 85 2 1 0 -4 -3 -9z m-5121
-86 c14 -31 26 -59 26 -63 -1 -8 -59 101 -60 112 -1 19 11 2 34 -49z m4986 -8
c0 -4 -29 -26 -180 -135 -19 -14 -30 -19 -24 -12 10 11 196 151 202 151 1 0 2
-2 2 -4z m-4010 -132 c0 -7 -88 55 -96 67 -3 6 17 -6 45 -26 28 -20 51 -39 51
-41z m5351 59 c13 -16 12 -17 -3 -4 -10 7 -18 15 -18 17 0 8 8 3 21 -13z
m-5265 -125 c4 -7 -9 1 -29 16 -20 16 -37 30 -37 33 0 7 58 -36 66 -49z m44
-30 c0 -6 -6 -5 -15 2 -8 7 -15 14 -15 16 0 2 7 1 15 -2 8 -4 15 -11 15 -16z"/>
</g>
</svg>
